<?xml version="1.0" encoding="utf-8"?>
<!-- Generator: Adobe Illustrator 24.2.0, SVG Export Plug-In . SVG Version: 6.00 Build 0)  -->
<svg version="1.1" id="Layer_1" xmlns="http://www.w3.org/2000/svg" xmlns:xlink="http://www.w3.org/1999/xlink" x="0px" y="0px"
	 viewBox="0 0 211.7 438.4" style="enable-background:new 0 0 211.7 438.4;" xml:space="preserve">
<style type="text/css">
	.st0{fill:#FFFFFF;}
</style>
<g id="b33365fd-e8a7-47e4-85b7-e8bbda3f880e">
	<path class="st0" d="M63.8,363.1L207.9,228c4.8-4.5,5.1-12,0.7-16.8c-0.2-0.2-0.4-0.4-0.7-0.7L63.8,75.3c-4.9-4.5-12.4-4.3-17,0.5
		L3.3,122.2c-4.5,4.8-4.3,12.4,0.5,17c0.1,0.1,0.2,0.2,0.3,0.2l90.6,79.8L4.1,299c-5,4.3-5.5,11.9-1.1,16.8c0.1,0.1,0.2,0.3,0.3,0.4
		l43.5,46.4C51.3,367.5,58.9,367.7,63.8,363.1C63.8,363.2,63.8,363.2,63.8,363.1L63.8,363.1z"/>
</g>
</svg>
