<?xml version="1.0" encoding="utf-8"?>
<!-- Generator: Adobe Illustrator 24.2.0, SVG Export Plug-In . SVG Version: 6.00 Build 0)  -->
<svg version="1.1" id="Layer_1" xmlns="http://www.w3.org/2000/svg" xmlns:xlink="http://www.w3.org/1999/xlink" x="0px" y="0px"
	 viewBox="0 0 211.7 438.3" style="enable-background:new 0 0 211.7 438.3;" xml:space="preserve">
<style type="text/css">
	.st0{fill:#FFFFFF;}
</style>
<g id="f38ca793-18ce-4346-b4d6-41af9d5a96e5">
	<path class="st0" d="M164.9,362.4l43.5-46.4c4.5-4.8,4.3-12.4-0.5-17c-0.1-0.1-0.2-0.2-0.3-0.2L117,219.1l90.6-79.7
		c5-4.3,5.5-11.9,1.1-16.8c-0.1-0.1-0.2-0.3-0.3-0.4l-43.5-46.4c-4.5-4.8-12.1-5.1-17-0.5c0,0,0,0,0,0L3.8,210.3
		c-4.8,4.5-5.1,12-0.6,16.9c0.2,0.2,0.4,0.4,0.6,0.6l144.1,135.1c4.7,4.6,12.3,4.4,16.9-0.3C164.8,362.5,164.9,362.5,164.9,362.4
		L164.9,362.4z"/>
</g>
</svg>
